<svg xmlns="http://www.w3.org/2000/svg" xml:lang="en" height="138.62941366523745pt" width="268.73899366523744pt" viewBox="-18.199999999999996 -131.6 268.73899366523744 138.62941366523745"><circle cx="3.9678556292374245e-15" cy="-64.8" r="16.2" style="stroke:black;fill:none;stroke-width:2;" /><polygon points="123.46497631090205,-98.59015354432003 125.75600228194645,-84.84399771805356 112.00984645567996,-87.13502368909798 " style="stroke:black;fill:none;stroke-width:2;stroke-linecap:round;stroke-linejoin:round;" /><polygon points="62.91643279044253,-90.57156264566459 76.66258861670902,-92.862588616709 74.37156264566461,-79.11643279044252 " style="stroke:black;fill:none;stroke-width:2;stroke-linecap:round;stroke-linejoin:round;" /><polygon points="74.37156264566461,-49.4967398790826 76.66258861670903,-35.75058405281611 62.91643279044254,-38.04161002386053 " style="stroke:black;fill:none;stroke-width:2;stroke-linecap:round;stroke-linejoin:round;" /><polygon points="112.00984645567998,-41.47814898042715 125.75600228194646,-43.76917495147156 123.46497631090206,-30.02301912520508 " style="stroke:black;fill:none;stroke-width:2;stroke-linecap:round;stroke-linejoin:round;" /><path d="M 162.49 -64.31 a 4.05 4.05 0 1 1 8.099999999999994 0.0" style="stroke:black;fill:none;stroke-width:2;" /><path d="M 170.59 -64.31 a 4.05 4.05 0 1 1 8.099999999999994 0.0" style="stroke:black;fill:none;stroke-width:2;" /><path d="M 178.69 -64.31 a 4.05 4.05 0 1 1 8.099999999999994 0.0" style="stroke:black;fill:none;stroke-width:2;" /><path d="M 186.79 -64.31 a 4.05 4.05 0 1 1 8.099999999999994 0.0" style="stroke:black;fill:none;stroke-width:2;" /><path d="M 0.0,-0.0 L 48.599999999999994,-0.0 L 97.19999999999999,-0.0" style="stroke:black;fill:none;stroke-width:2;stroke-linecap:round;stroke-linejoin:round;" /><path d="M 97.19999999999999,-0.0 L 97.19999999999999,-8.1 L 97.19999999999999,-16.2" style="stroke:black;fill:none;stroke-width:2;stroke-linecap:round;stroke-linejoin:round;" /><path d="M 0.0,-0.0 L 2.975891721928068e-15,-48.599999999999994 L 2.975891721928068e-15,-48.599999999999994 M 4.9598195365467806e-15,-81.0 L 4.9598195365467806e-15,-81.0 L 7.935711258474849e-15,-129.6" style="stroke:black;fill:none;stroke-width:2;stroke-linecap:round;stroke-linejoin:round;" /><path d="M -8.099999999999996,-64.8 L -7.424999999999994,-66.47714741226433 L -6.749999999999995,-68.04 L -6.074999999999995,-69.38205194208882 L -5.399999999999994,-70.41184461652315 L -4.724999999999994,-71.05919935435317 L -4.049999999999995,-71.28 L -3.3749999999999942,-71.05919935435315 L -2.699999999999995,-70.41184461652315 L -2.0249999999999955,-69.38205194208884 L -1.3499999999999945,-68.03999999999999 L -0.6749999999999953,-66.47714741226433 L 3.9678556292374245e-15,-64.8 L 0.675000000000004,-63.122852587735665 L 1.3500000000000043,-61.559999999999995 L 2.0250000000000035,-60.21794805791117 L 2.7000000000000037,-59.18815538347684 L 3.375000000000004,-58.54080064564683 L 4.050000000000003,-58.32 L 4.725000000000004,-58.54080064564684 L 5.400000000000004,-59.18815538347684 L 6.075000000000004,-60.217948057911165 L 6.7500000000000036,-61.559999999999995 L 7.425000000000003,-63.12285258773566 L 8.100000000000003,-64.8" style="stroke:black;fill:none;stroke-width:2;stroke-linecap:round;stroke-linejoin:round;" /><path d="M 7.935711258474849e-15,-129.6 L 48.60000000000001,-129.6 L 97.20000000000002,-129.6" style="stroke:black;fill:none;stroke-width:2;stroke-linecap:round;stroke-linejoin:round;" /><path d="M 97.20000000000002,-129.6 L 97.20000000000002,-121.5 L 97.20000000000002,-113.39999999999999" style="stroke:black;fill:none;stroke-width:2;stroke-linecap:round;stroke-linejoin:round;" /><path d="M 97.20000000000002,-113.39999999999999 L 117.737411383291,-92.862588616709 M 131.48356720955746,-90.57156264566459 L 120.02843735433542,-79.11643279044252 M 125.75600228194645,-84.84399771805356 L 146.29341366523744,-64.30658633476256" style="stroke:black;fill:none;stroke-width:2;stroke-linecap:round;stroke-linejoin:round;" /><path d="M 97.20000000000002,-113.39999999999999 L 76.66258861670902,-92.862588616709 M 70.93502368909797,-98.59015354432003 L 82.39015354432006,-87.13502368909796 M 68.64399771805357,-84.84399771805356 L 48.106586334762575,-64.30658633476256" style="stroke:black;fill:none;stroke-width:2;stroke-linecap:round;stroke-linejoin:round;" /><path d="M 48.106586334762575,-64.30658633476256 L 40.00658633476258,-64.30658633476256 L 31.90658633476258,-64.30658633476256" style="stroke:black;fill:none;stroke-width:2;stroke-linecap:round;stroke-linejoin:round;" /><path d="M 31.90658633476258,-64.30658633476256 L 31.90658633476258,-51.346586334762556 L 23.806586334762578,-51.346586334762556 L 40.00658633476258,-51.346586334762556 M 26.236586334762578,-47.45858633476256 L 37.57658633476258,-47.45858633476256 M 30.28658633476258,-43.57058633476255 L 33.52658633476258,-43.57058633476255" style="stroke:black;fill:none;stroke-width:2;stroke-linecap:round;stroke-linejoin:round;" /><path d="M 48.106586334762575,-64.30658633476256 L 68.64399771805357,-43.769174951471555 M 82.39015354432006,-41.47814898042715 L 70.93502368909799,-30.023019125205074 M 76.66258861670903,-35.75058405281611 L 97.20000000000003,-15.213172669525122" style="stroke:black;fill:none;stroke-width:2;stroke-linecap:round;stroke-linejoin:round;" /><path d="M 97.20000000000003,-15.213172669525122 L 117.73741138329102,-35.75058405281611 M 120.02843735433542,-49.496739879082604 L 131.4835672095575,-38.041610023860535 M 125.75600228194646,-43.76917495147156 L 146.29341366523747,-64.30658633476256" style="stroke:black;fill:none;stroke-width:2;stroke-linecap:round;stroke-linejoin:round;" /><path d="M 146.29341366523747,-64.30658633476256 L 154.3934136652375,-64.30658633476256 L 162.49341366523748,-64.30658633476256" style="stroke:black;fill:none;stroke-width:2;stroke-linecap:round;stroke-linejoin:round;" /><path d="M 194.8934136652375,-64.30658633476256 L 202.99341366523748,-64.30658633476256 L 211.09341366523748,-64.30658633476256" style="stroke:black;fill:none;stroke-width:2;stroke-linecap:round;stroke-linejoin:round;" /><path d="M 211.09341366523748,-64.30658633476256 L 211.09341366523748,-56.206586334762555 L 219.19341366523747,-53.50658633476255 L 202.99341366523748,-48.106586334762554 L 219.19341366523747,-42.70658633476256 L 202.99341366523748,-37.30658633476256 L 219.19341366523747,-31.906586334762558 L 202.99341366523748,-26.506586334762563 L 211.09341366523748,-23.806586334762557 L 211.09341366523748,-15.706586334762557" style="stroke:black;fill:none;stroke-width:2;stroke-linecap:round;stroke-linejoin:round;" /><path d="M 211.09341366523748,-15.706586334762557 L 211.09341366523748,-2.746586334762557 L 202.99341366523748,-2.746586334762557 L 219.19341366523747,-2.746586334762557 M 205.4234136652375,1.1414136652374427 L 216.76341366523747,1.1414136652374427 M 209.47341366523747,5.029413665237443 L 212.71341366523748,5.029413665237443" style="stroke:black;fill:none;stroke-width:2;stroke-linecap:round;stroke-linejoin:round;" /><path d="M 162.49341366523748,-64.30658633476256 M 194.8934136652375,-64.30658633476256" style="stroke:black;fill:none;stroke-width:2;stroke-linecap:round;stroke-linejoin:round;" /><path d="M 162.49341366523748,-64.30658633476256 L 162.49341366523748,-42.92258633476255 M 170.59341366523748,-42.92258633476255 L 154.3934136652375,-42.92258633476255 M 170.59341366523748,-37.090586334762556 L 154.3934136652375,-37.090586334762556 M 162.49341366523748,-37.090586334762556 L 162.49341366523748,-15.706586334762557" style="stroke:black;fill:none;stroke-width:2;stroke-linecap:round;stroke-linejoin:round;" /><path d="M 162.49341366523748,-15.706586334762557 L 162.49341366523748,-2.746586334762557 L 154.3934136652375,-2.746586334762557 L 170.59341366523748,-2.746586334762557 M 156.8234136652375,1.1414136652374427 L 168.16341366523747,1.1414136652374427 M 160.87341366523748,5.029413665237443 L 164.11341366523746,5.029413665237443" style="stroke:black;fill:none;stroke-width:2;stroke-linecap:round;stroke-linejoin:round;" /><g><g fill="black"><symbol id="STIXTwoMath-Regular_3784" width="560" height="51.216" viewBox="0 -31.524 560 51.216"><path d="M 0.396 0.0 L 1.992 -7.884 L 4.212 -7.884 Q 5.364 -7.884, 6.042 -7.452 Q 6.72 -7.0200000000000005, 6.72 -5.988 Q 6.72 -5.28, 6.4079999999999995 -4.758 Q 6.096 -4.236, 5.562 -3.894 Q 5.0280000000000005 -3.552, 4.356 -3.42 L 5.772 0.0 L 4.74 0.0 L 3.42 -3.336 L 2.028 -3.336 L 1.344 0.0 Z M 2.196 -4.104 L 3.396 -4.104 Q 4.548 -4.104, 5.16 -4.59 Q 5.772 -5.0760000000000005, 5.772 -5.88 Q 5.772 -6.5520000000000005, 5.328 -6.8340000000000005 Q 4.884 -7.1160000000000005, 3.972 -7.1160000000000005 L 2.7960000000000003 -7.1160000000000005 Z " /></symbol><use href="#STIXTwoMath-Regular_3784" transform="translate(222.43341366523745 -73.13583633476256) scale(1.1666666666666667)" /><symbol id="STIXTwoMath-Regular_3778" width="408" height="51.216" viewBox="0 -31.524 408 51.216"><path d="M 0.396 0.0 L 1.992 -7.884 L 2.952 -7.884 L 1.512 -0.804 L 4.896 -0.804 L 4.74 0.0 Z " /></symbol><use href="#STIXTwoMath-Regular_3778" transform="translate(230.38541366523745 -59.16243633476257) scale(0.8166666666666668)" /></g></g></svg>